<mxfile host="app.diagrams.net" agent="Mozilla/5.0 (Macintosh; Intel Mac OS X 10_15_7) AppleWebKit/537.36 (KHTML, like Gecko) Chrome/129.0.0.0 Safari/537.36" version="24.7.16" pages="2">
  <diagram id="6vgpfLJxG9BeQ7LSBK3K" name="Acquisition">
    <mxGraphModel dx="1026" dy="684" grid="1" gridSize="10" guides="1" tooltips="1" connect="1" arrows="1" fold="1" page="1" pageScale="1" pageWidth="827" pageHeight="1169" math="0" shadow="0">
      <root>
        <mxCell id="0" />
        <mxCell id="1" parent="0" />
        <mxCell id="q_N_0xvKZxsOYUWMpAK_-20" style="edgeStyle=orthogonalEdgeStyle;rounded=0;orthogonalLoop=1;jettySize=auto;html=1;strokeWidth=1;" edge="1" parent="1" source="q_N_0xvKZxsOYUWMpAK_-3" target="q_N_0xvKZxsOYUWMpAK_-14">
          <mxGeometry relative="1" as="geometry" />
        </mxCell>
        <mxCell id="q_N_0xvKZxsOYUWMpAK_-3" value="API Gateway" style="rounded=0;whiteSpace=wrap;html=1;fillColor=#f5f5f5;fontColor=#333333;strokeColor=#666666;" vertex="1" parent="1">
          <mxGeometry x="200" y="240" width="200" height="40" as="geometry" />
        </mxCell>
        <mxCell id="q_N_0xvKZxsOYUWMpAK_-4" value="Customer Service&lt;div&gt;[api]&lt;/div&gt;" style="rounded=0;whiteSpace=wrap;html=1;fillColor=#dae8fc;strokeColor=#6c8ebf;" vertex="1" parent="1">
          <mxGeometry x="640" y="480" width="200" height="40" as="geometry" />
        </mxCell>
        <mxCell id="q_N_0xvKZxsOYUWMpAK_-5" value="Account Service&lt;div&gt;[api]&lt;/div&gt;" style="rounded=0;whiteSpace=wrap;html=1;fillColor=#dae8fc;strokeColor=#6c8ebf;" vertex="1" parent="1">
          <mxGeometry x="920" y="480" width="200" height="40" as="geometry" />
        </mxCell>
        <mxCell id="q_N_0xvKZxsOYUWMpAK_-22" style="edgeStyle=orthogonalEdgeStyle;rounded=0;orthogonalLoop=1;jettySize=auto;html=1;" edge="1" parent="1" source="q_N_0xvKZxsOYUWMpAK_-14" target="q_N_0xvKZxsOYUWMpAK_-21">
          <mxGeometry relative="1" as="geometry" />
        </mxCell>
        <mxCell id="q_N_0xvKZxsOYUWMpAK_-14" value="Customer Enrollment Service&amp;nbsp;&lt;div&gt;[api]&lt;/div&gt;" style="rounded=0;whiteSpace=wrap;html=1;fillColor=#dae8fc;strokeColor=#6c8ebf;" vertex="1" parent="1">
          <mxGeometry x="200" y="360" width="200" height="40" as="geometry" />
        </mxCell>
        <mxCell id="q_N_0xvKZxsOYUWMpAK_-16" value="Wallet Service&lt;div&gt;[api]&lt;/div&gt;" style="rounded=0;whiteSpace=wrap;html=1;fillColor=#dae8fc;strokeColor=#6c8ebf;" vertex="1" parent="1">
          <mxGeometry x="1160" y="480" width="200" height="40" as="geometry" />
        </mxCell>
        <mxCell id="q_N_0xvKZxsOYUWMpAK_-24" style="edgeStyle=orthogonalEdgeStyle;rounded=0;orthogonalLoop=1;jettySize=auto;html=1;entryX=0;entryY=0.5;entryDx=0;entryDy=0;dashed=1;" edge="1" parent="1" source="q_N_0xvKZxsOYUWMpAK_-21" target="q_N_0xvKZxsOYUWMpAK_-23">
          <mxGeometry relative="1" as="geometry" />
        </mxCell>
        <mxCell id="q_N_0xvKZxsOYUWMpAK_-21" value="" style="shape=cylinder3;whiteSpace=wrap;html=1;boundedLbl=1;backgroundOutline=1;size=15;rotation=90;fillColor=#f5f5f5;strokeColor=#666666;fontColor=#333333;" vertex="1" parent="1">
          <mxGeometry x="499.38" y="340.63" width="40" height="80" as="geometry" />
        </mxCell>
        <mxCell id="q_N_0xvKZxsOYUWMpAK_-25" style="edgeStyle=orthogonalEdgeStyle;rounded=0;orthogonalLoop=1;jettySize=auto;html=1;labelBackgroundColor=#000000;fontColor=#FFFFFF;" edge="1" parent="1" source="q_N_0xvKZxsOYUWMpAK_-23" target="q_N_0xvKZxsOYUWMpAK_-4">
          <mxGeometry relative="1" as="geometry" />
        </mxCell>
        <mxCell id="q_N_0xvKZxsOYUWMpAK_-26" style="edgeStyle=orthogonalEdgeStyle;rounded=0;orthogonalLoop=1;jettySize=auto;html=1;entryX=0.5;entryY=0;entryDx=0;entryDy=0;labelBackgroundColor=#000000;fontColor=#FFFFFF;" edge="1" parent="1" source="q_N_0xvKZxsOYUWMpAK_-23" target="q_N_0xvKZxsOYUWMpAK_-5">
          <mxGeometry relative="1" as="geometry" />
        </mxCell>
        <mxCell id="q_N_0xvKZxsOYUWMpAK_-23" value="Customer Enrollment Service&lt;div&gt;[worker]&lt;/div&gt;" style="rounded=0;whiteSpace=wrap;html=1;fillColor=#ffe6cc;strokeColor=#d79b00;" vertex="1" parent="1">
          <mxGeometry x="640" y="360" width="200" height="40" as="geometry" />
        </mxCell>
        <mxCell id="q_N_0xvKZxsOYUWMpAK_-27" style="edgeStyle=orthogonalEdgeStyle;rounded=0;orthogonalLoop=1;jettySize=auto;html=1;labelBackgroundColor=#000000;fontColor=#FFFFFF;" edge="1" parent="1" source="q_N_0xvKZxsOYUWMpAK_-23" target="q_N_0xvKZxsOYUWMpAK_-16">
          <mxGeometry relative="1" as="geometry" />
        </mxCell>
        <mxCell id="q_N_0xvKZxsOYUWMpAK_-32" value="1" style="ellipse;whiteSpace=wrap;html=1;aspect=fixed;" vertex="1" parent="1">
          <mxGeometry x="730" y="430" width="20" height="20" as="geometry" />
        </mxCell>
        <mxCell id="q_N_0xvKZxsOYUWMpAK_-36" value="2" style="ellipse;whiteSpace=wrap;html=1;aspect=fixed;" vertex="1" parent="1">
          <mxGeometry x="1010" y="430" width="20" height="20" as="geometry" />
        </mxCell>
        <mxCell id="q_N_0xvKZxsOYUWMpAK_-37" value="3" style="ellipse;whiteSpace=wrap;html=1;aspect=fixed;" vertex="1" parent="1">
          <mxGeometry x="1250" y="430" width="20" height="20" as="geometry" />
        </mxCell>
        <mxCell id="q_N_0xvKZxsOYUWMpAK_-38" value="Customer Enrollment Service&lt;div&gt;[job]&lt;/div&gt;" style="rounded=0;whiteSpace=wrap;html=1;fillColor=#e1d5e7;strokeColor=#9673a6;" vertex="1" parent="1">
          <mxGeometry x="200" y="480" width="200" height="40" as="geometry" />
        </mxCell>
        <mxCell id="q_N_0xvKZxsOYUWMpAK_-39" style="edgeStyle=orthogonalEdgeStyle;rounded=0;orthogonalLoop=1;jettySize=auto;html=1;entryX=0.5;entryY=1;entryDx=0;entryDy=0;entryPerimeter=0;strokeWidth=1;jumpStyle=none;" edge="1" parent="1" source="q_N_0xvKZxsOYUWMpAK_-38" target="q_N_0xvKZxsOYUWMpAK_-21">
          <mxGeometry relative="1" as="geometry" />
        </mxCell>
      </root>
    </mxGraphModel>
  </diagram>
  <diagram id="bXDPalUZnXCFTHf6gSmQ" name="Customer Enrollment Status">
    <mxGraphModel dx="1026" dy="684" grid="1" gridSize="10" guides="1" tooltips="1" connect="1" arrows="1" fold="1" page="1" pageScale="1" pageWidth="827" pageHeight="1169" math="0" shadow="0">
      <root>
        <mxCell id="0" />
        <mxCell id="1" parent="0" />
        <mxCell id="DJ_E_0yAn1cXsnDmfMEY-10" style="edgeStyle=orthogonalEdgeStyle;rounded=0;orthogonalLoop=1;jettySize=auto;html=1;" edge="1" parent="1" source="DJ_E_0yAn1cXsnDmfMEY-1" target="DJ_E_0yAn1cXsnDmfMEY-9">
          <mxGeometry relative="1" as="geometry" />
        </mxCell>
        <mxCell id="DJ_E_0yAn1cXsnDmfMEY-1" value="Waiting Review" style="rounded=0;whiteSpace=wrap;html=1;fillColor=#dae8fc;strokeColor=#6c8ebf;" vertex="1" parent="1">
          <mxGeometry x="160" y="120" width="160" height="40" as="geometry" />
        </mxCell>
        <mxCell id="DJ_E_0yAn1cXsnDmfMEY-6" style="edgeStyle=orthogonalEdgeStyle;rounded=0;orthogonalLoop=1;jettySize=auto;html=1;entryX=0.5;entryY=0;entryDx=0;entryDy=0;exitX=0.5;exitY=1;exitDx=0;exitDy=0;" edge="1" parent="1" source="DJ_E_0yAn1cXsnDmfMEY-1" target="DJ_E_0yAn1cXsnDmfMEY-5">
          <mxGeometry relative="1" as="geometry" />
        </mxCell>
        <mxCell id="DJ_E_0yAn1cXsnDmfMEY-7" style="edgeStyle=orthogonalEdgeStyle;rounded=0;orthogonalLoop=1;jettySize=auto;html=1;entryX=0.5;entryY=1;entryDx=0;entryDy=0;startArrow=classic;startFill=1;exitX=0.5;exitY=0;exitDx=0;exitDy=0;" edge="1" parent="1" source="DJ_E_0yAn1cXsnDmfMEY-1" target="DJ_E_0yAn1cXsnDmfMEY-4">
          <mxGeometry relative="1" as="geometry" />
        </mxCell>
        <mxCell id="DJ_E_0yAn1cXsnDmfMEY-4" value="Review Failed" style="rounded=0;whiteSpace=wrap;html=1;fillColor=#ffe6cc;strokeColor=#d79b00;" vertex="1" parent="1">
          <mxGeometry x="160" y="40" width="160" height="40" as="geometry" />
        </mxCell>
        <mxCell id="DJ_E_0yAn1cXsnDmfMEY-5" value="Rejected" style="rounded=0;whiteSpace=wrap;html=1;fillColor=#f8cecc;strokeColor=#b85450;" vertex="1" parent="1">
          <mxGeometry x="160" y="200" width="160" height="40" as="geometry" />
        </mxCell>
        <mxCell id="DJ_E_0yAn1cXsnDmfMEY-12" style="edgeStyle=orthogonalEdgeStyle;rounded=0;orthogonalLoop=1;jettySize=auto;html=1;" edge="1" parent="1" source="DJ_E_0yAn1cXsnDmfMEY-9" target="DJ_E_0yAn1cXsnDmfMEY-11">
          <mxGeometry relative="1" as="geometry" />
        </mxCell>
        <mxCell id="DJ_E_0yAn1cXsnDmfMEY-14" style="edgeStyle=orthogonalEdgeStyle;rounded=0;orthogonalLoop=1;jettySize=auto;html=1;entryX=0.5;entryY=1;entryDx=0;entryDy=0;startArrow=classic;startFill=1;" edge="1" parent="1" source="DJ_E_0yAn1cXsnDmfMEY-9" target="DJ_E_0yAn1cXsnDmfMEY-13">
          <mxGeometry relative="1" as="geometry" />
        </mxCell>
        <mxCell id="DJ_E_0yAn1cXsnDmfMEY-9" value="Waiting Customer Creation" style="rounded=0;whiteSpace=wrap;html=1;fillColor=#dae8fc;strokeColor=#6c8ebf;" vertex="1" parent="1">
          <mxGeometry x="360" y="120" width="160" height="40" as="geometry" />
        </mxCell>
        <mxCell id="DJ_E_0yAn1cXsnDmfMEY-16" style="edgeStyle=orthogonalEdgeStyle;rounded=0;orthogonalLoop=1;jettySize=auto;html=1;startArrow=classic;startFill=1;" edge="1" parent="1" source="DJ_E_0yAn1cXsnDmfMEY-11" target="DJ_E_0yAn1cXsnDmfMEY-15">
          <mxGeometry relative="1" as="geometry" />
        </mxCell>
        <mxCell id="DJ_E_0yAn1cXsnDmfMEY-22" style="edgeStyle=orthogonalEdgeStyle;rounded=0;orthogonalLoop=1;jettySize=auto;html=1;entryX=0;entryY=0.5;entryDx=0;entryDy=0;" edge="1" parent="1" source="DJ_E_0yAn1cXsnDmfMEY-11" target="DJ_E_0yAn1cXsnDmfMEY-20">
          <mxGeometry relative="1" as="geometry" />
        </mxCell>
        <mxCell id="DJ_E_0yAn1cXsnDmfMEY-11" value="Waiting Account Creation" style="rounded=0;whiteSpace=wrap;html=1;fillColor=#dae8fc;strokeColor=#6c8ebf;" vertex="1" parent="1">
          <mxGeometry x="560" y="120" width="160" height="40" as="geometry" />
        </mxCell>
        <mxCell id="DJ_E_0yAn1cXsnDmfMEY-13" value="Customer Creation Failed" style="rounded=0;whiteSpace=wrap;html=1;fillColor=#ffe6cc;strokeColor=#d79b00;" vertex="1" parent="1">
          <mxGeometry x="360" y="40" width="160" height="40" as="geometry" />
        </mxCell>
        <mxCell id="DJ_E_0yAn1cXsnDmfMEY-15" value="Account Creation Failed" style="rounded=0;whiteSpace=wrap;html=1;fillColor=#ffe6cc;strokeColor=#d79b00;" vertex="1" parent="1">
          <mxGeometry x="560" y="40" width="160" height="40" as="geometry" />
        </mxCell>
        <mxCell id="DJ_E_0yAn1cXsnDmfMEY-17" value="Approved" style="rounded=0;whiteSpace=wrap;html=1;fillColor=#d5e8d4;strokeColor=#82b366;" vertex="1" parent="1">
          <mxGeometry x="960" y="120" width="160" height="40" as="geometry" />
        </mxCell>
        <mxCell id="DJ_E_0yAn1cXsnDmfMEY-23" style="edgeStyle=orthogonalEdgeStyle;rounded=0;orthogonalLoop=1;jettySize=auto;html=1;entryX=0.5;entryY=1;entryDx=0;entryDy=0;startArrow=classic;startFill=1;" edge="1" parent="1" source="DJ_E_0yAn1cXsnDmfMEY-20" target="DJ_E_0yAn1cXsnDmfMEY-21">
          <mxGeometry relative="1" as="geometry" />
        </mxCell>
        <mxCell id="DJ_E_0yAn1cXsnDmfMEY-24" style="edgeStyle=orthogonalEdgeStyle;rounded=0;orthogonalLoop=1;jettySize=auto;html=1;" edge="1" parent="1" source="DJ_E_0yAn1cXsnDmfMEY-20" target="DJ_E_0yAn1cXsnDmfMEY-17">
          <mxGeometry relative="1" as="geometry" />
        </mxCell>
        <mxCell id="DJ_E_0yAn1cXsnDmfMEY-20" value="Waiting Wallet Creation" style="rounded=0;whiteSpace=wrap;html=1;fillColor=#dae8fc;strokeColor=#6c8ebf;" vertex="1" parent="1">
          <mxGeometry x="760" y="120" width="160" height="40" as="geometry" />
        </mxCell>
        <mxCell id="DJ_E_0yAn1cXsnDmfMEY-21" value="Wallet Creation Failed" style="rounded=0;whiteSpace=wrap;html=1;fillColor=#ffe6cc;strokeColor=#d79b00;" vertex="1" parent="1">
          <mxGeometry x="760" y="40" width="160" height="40" as="geometry" />
        </mxCell>
      </root>
    </mxGraphModel>
  </diagram>
</mxfile>
